<svg width="50" height="50" viewBox="0 0 50 50" fill="none" xmlns="http://www.w3.org/2000/svg">
<rect width="50" height="50" rx="17" fill="#FFFBEC"/>
<path d="M25 21.75C21.6458 21.75 18.9323 21.2396 16.8594 20.2187C14.7865 19.1979 13.75 18.0417 13.75 16.75C13.75 15.4375 14.7865 14.276 16.8594 13.2656C18.9323 12.2552 21.6458 11.75 25 11.75C28.3542 11.75 31.0677 12.2552 33.1406 13.2656C35.2135 14.276 36.25 15.4375 36.25 16.75C36.25 18.0417 35.2135 19.1979 33.1406 20.2187C31.0677 21.2396 28.3542 21.75 25 21.75ZM25 28C21.9583 28 19.3229 27.5417 17.0938 26.625C14.8646 25.7083 13.75 24.6042 13.75 23.3125V20.1875C13.75 21 14.1406 21.7031 14.9219 22.2969C15.7031 22.8906 16.6719 23.3802 17.8281 23.7656C18.9844 24.151 20.2135 24.4323 21.5156 24.6094C22.8177 24.7865 23.9792 24.875 25 24.875C26.0417 24.875 27.2083 24.7865 28.5 24.6094C29.7917 24.4323 31.0156 24.1563 32.1719 23.7812C33.3281 23.4062 34.2969 22.9219 35.0781 22.3281C35.8594 21.7344 36.25 21.0208 36.25 20.1875V23.3125C36.25 24.6042 35.1354 25.7083 32.9063 26.625C30.6771 27.5417 28.0417 28 25 28ZM25 34.25C21.9583 34.25 19.3229 33.7917 17.0938 32.875C14.8646 31.9583 13.75 30.8542 13.75 29.5625V26.4375C13.75 27.25 14.1406 27.9531 14.9219 28.5469C15.7031 29.1406 16.6719 29.6302 17.8281 30.0156C18.9844 30.401 20.2135 30.6823 21.5156 30.8594C22.8177 31.0365 23.9792 31.125 25 31.125C26.0417 31.125 27.2083 31.0365 28.5 30.8594C29.7917 30.6823 31.0156 30.4063 32.1719 30.0312C33.3281 29.6562 34.2969 29.1719 35.0781 28.5781C35.8594 27.9844 36.25 27.2708 36.25 26.4375V29.5625C36.25 30.8542 35.1354 31.9583 32.9063 32.875C30.6771 33.7917 28.0417 34.25 25 34.25Z" fill="#FFB110"/>
</svg>
