<svg width="50" height="50" viewBox="0 0 50 50" fill="none" xmlns="http://www.w3.org/2000/svg">
<rect width="50" height="50" rx="17" fill="#FEEEEE"/>
<path d="M25 5L29.4903 18.8197H44.0211L32.2654 27.3607L36.7557 41.1803L25 32.6393L13.2443 41.1803L17.7346 27.3607L5.97887 18.8197H20.5097L25 5Z" fill="#AC4141"/>
<path d="M18.7585 30V21.2727H20.6037V28.4787H24.3452V30H18.7585ZM25.516 30V28.6705L28.6225 25.794C28.8867 25.5384 29.1083 25.3082 29.2873 25.1037C29.4691 24.8991 29.6069 24.6989 29.7006 24.5028C29.7944 24.304 29.8413 24.0895 29.8413 23.8594C29.8413 23.6037 29.783 23.3835 29.6665 23.1989C29.5501 23.0114 29.391 22.8679 29.1893 22.7685C28.9876 22.6662 28.7589 22.6151 28.5032 22.6151C28.2362 22.6151 28.0032 22.669 27.8043 22.777C27.6055 22.8849 27.4521 23.0398 27.3441 23.2415C27.2362 23.4432 27.1822 23.6832 27.1822 23.9616H25.4308C25.4308 23.3906 25.56 22.8949 25.8185 22.4744C26.0771 22.054 26.4393 21.7287 26.9052 21.4986C27.3711 21.2685 27.908 21.1534 28.516 21.1534C29.141 21.1534 29.685 21.2642 30.1481 21.4858C30.614 21.7045 30.9762 22.0085 31.2347 22.3977C31.4933 22.7869 31.6225 23.233 31.6225 23.7358C31.6225 24.0653 31.5572 24.3906 31.4265 24.7116C31.2987 25.0327 31.07 25.3892 30.7404 25.7812C30.4109 26.1705 29.9464 26.6378 29.3469 27.1832L28.0728 28.4318V28.4915H31.7376V30H25.516Z" fill="white"/>
</svg>
