<svg width="32" height="32" viewBox="0 0 32 32" fill="none" xmlns="http://www.w3.org/2000/svg">
<rect width="32" height="32" rx="12" fill="#0BF5CB"/>
<path d="M8.598 12.1959L7.70425 10.4084L5.91675 9.51462L7.70425 8.62087L8.598 6.83337L9.49175 8.62087L11.2792 9.51462L9.49175 10.4084L8.598 12.1959ZM22.9438 24.8688L21.9126 22.7605L19.8042 21.7292L21.9126 20.698L22.9438 18.5896L23.9751 20.698L26.0834 21.7292L23.9751 22.7605L22.9438 24.8688ZM16.5272 25.1667C16.0383 25.1667 15.5647 25.0636 15.1063 24.8573C14.648 24.6511 14.2584 24.357 13.9376 23.975L8.98758 18.2917L10.0647 17.2146C10.3397 16.9396 10.6643 16.783 11.0386 16.7448C11.4129 16.7066 11.7605 16.7945 12.0813 17.0084L13.9376 18.2688V10.2709C13.9376 9.82782 14.0942 9.44969 14.4074 9.1365C14.7206 8.8233 15.0987 8.66671 15.5417 8.66671C15.664 8.66671 15.7824 8.67817 15.897 8.70108C16.0115 8.724 16.1223 8.76601 16.2292 8.82712V8.43754C16.2292 7.99449 16.3858 7.61636 16.699 7.30317C17.0122 6.98997 17.3904 6.83337 17.8334 6.83337C18.1542 6.83337 18.4483 6.9365 18.7157 7.14275C18.9831 7.349 19.2008 7.6049 19.3688 7.91046C19.4758 7.86462 19.5904 7.82643 19.7126 7.79587C19.8348 7.76532 19.9723 7.75004 20.1251 7.75004C20.5681 7.75004 20.9463 7.90664 21.2595 8.21983C21.5726 8.53303 21.7292 8.91115 21.7292 9.35421V9.74379C21.8515 9.68268 21.9661 9.64067 22.073 9.61775C22.1799 9.59483 22.2945 9.58337 22.4167 9.58337C22.8598 9.58337 23.2379 9.73997 23.5511 10.0532C23.8643 10.3664 24.0209 10.7445 24.0209 11.1875V15.3125H23.1042V11.1875C23.1042 10.9889 23.0393 10.8247 22.9095 10.6948C22.7796 10.565 22.6154 10.5 22.4167 10.5C22.2334 10.5 22.073 10.565 21.9355 10.6948C21.798 10.8247 21.7292 10.9889 21.7292 11.1875V16.2292H20.8126V9.35421C20.8126 9.1556 20.7477 8.99136 20.6178 8.8615C20.4879 8.73164 20.3237 8.66671 20.1251 8.66671C19.9417 8.66671 19.7813 8.73164 19.6438 8.8615C19.5063 8.99136 19.4376 9.1556 19.4376 9.35421V16.2292H18.5209V8.43754C18.5209 8.23893 18.456 8.07469 18.3261 7.94483C18.1963 7.81497 18.032 7.75004 17.8334 7.75004C17.6501 7.75004 17.4897 7.81497 17.3522 7.94483C17.2147 8.07469 17.1459 8.23893 17.1459 8.43754V16.2292H16.2292V10.2709C16.2292 10.0723 16.1643 9.91185 16.0345 9.78962C15.9046 9.6674 15.7404 9.60629 15.5417 9.60629C15.3584 9.60629 15.198 9.67122 15.0605 9.80108C14.923 9.93094 14.8542 10.0952 14.8542 10.2938V19.9875L11.5542 17.8105C11.4167 17.7188 11.2716 17.6768 11.1188 17.6844C10.9661 17.6921 10.8286 17.757 10.7063 17.8792L10.2251 18.3605L14.6251 23.4021C14.8695 23.6771 15.156 23.8872 15.4845 24.0323C15.8129 24.1775 16.1605 24.25 16.5272 24.25H21.1105L21.5688 25.1667H16.5272Z" fill="white"/>
</svg>
