<svg width="32" height="32" viewBox="0 0 32 32" fill="none" xmlns="http://www.w3.org/2000/svg">
<rect width="32" height="32" rx="12" fill="#F50B0B"/>
<path d="M8.20825 20.6521V22.875H23.7916V20.6521H8.20825ZM8.20825 10.5H11.0728C10.9964 10.3625 10.9353 10.1906 10.8895 9.98435C10.8437 9.7781 10.8208 9.59095 10.8208 9.4229C10.8208 8.70484 11.0728 8.09373 11.577 7.58956C12.0812 7.0854 12.6846 6.83331 13.3874 6.83331C13.861 6.83331 14.2964 6.95172 14.6937 7.18852C15.0909 7.42533 15.4041 7.72706 15.6333 8.09373L16.0228 8.68956L16.3895 8.09373C16.6339 7.71179 16.9471 7.40623 17.3291 7.17706C17.711 6.9479 18.1235 6.83331 18.5666 6.83331C19.2999 6.83331 19.9187 7.08158 20.4228 7.5781C20.927 8.07463 21.1791 8.68956 21.1791 9.4229C21.1791 9.59095 21.16 9.75901 21.1218 9.92706C21.0836 10.0951 21.0263 10.2861 20.9499 10.5H23.7916C24.1583 10.5 24.4791 10.6375 24.7541 10.9125C25.0291 11.1875 25.1666 11.5083 25.1666 11.875V22.875C25.1666 23.2416 25.0291 23.5625 24.7541 23.8375C24.4791 24.1125 24.1583 24.25 23.7916 24.25H8.20825C7.84159 24.25 7.52075 24.1125 7.24575 23.8375C6.97075 23.5625 6.83325 23.2416 6.83325 22.875V11.875C6.83325 11.5083 6.97075 11.1875 7.24575 10.9125C7.52075 10.6375 7.84159 10.5 8.20825 10.5ZM8.20825 18.2H23.7916V11.875H18.0853L20.377 15.0604L19.277 15.8854L15.9999 11.3479L12.7228 15.8854L11.6228 15.0604L13.9145 11.875H8.20825V18.2ZM13.4103 10.6375C13.7464 10.6375 14.0329 10.5191 14.2697 10.2823C14.5065 10.0455 14.6249 9.75901 14.6249 9.4229C14.6249 9.08678 14.5065 8.80033 14.2697 8.56352C14.0329 8.32672 13.7464 8.20831 13.4103 8.20831C13.0742 8.20831 12.7878 8.32672 12.551 8.56352C12.3142 8.80033 12.1958 9.08678 12.1958 9.4229C12.1958 9.75901 12.3142 10.0455 12.551 10.2823C12.7878 10.5191 13.0742 10.6375 13.4103 10.6375ZM18.5666 10.6375C18.918 10.6375 19.2121 10.5191 19.4489 10.2823C19.6857 10.0455 19.8041 9.75901 19.8041 9.4229C19.8041 9.08678 19.6857 8.80033 19.4489 8.56352C19.2121 8.32672 18.918 8.20831 18.5666 8.20831C18.2458 8.20831 17.9669 8.32672 17.7301 8.56352C17.4933 8.80033 17.3749 9.08678 17.3749 9.4229C17.3749 9.75901 17.4933 10.0455 17.7301 10.2823C17.9669 10.5191 18.2458 10.6375 18.5666 10.6375Z" fill="white"/>
</svg>
