<svg width="50" height="50" viewBox="0 0 50 50" fill="none" xmlns="http://www.w3.org/2000/svg">
<rect width="50" height="50" rx="17" fill="#FEEEEE"/>
<path d="M35.0433 23.8418V19.2689C35.0433 18.4147 34.3975 17.446 33.5954 17.123L27.7933 14.748C26.4913 14.2168 25.0225 14.2168 23.7204 14.748L17.9183 17.123C17.1267 17.446 16.4808 18.4147 16.4808 19.2689V23.8418C16.4808 28.9355 20.1788 33.7064 25.2308 35.1022C25.5746 35.196 25.9496 35.196 26.2933 35.1022C31.3454 33.7064 35.0433 28.9355 35.0433 23.8418ZM26.5433 25.6647V28.4043C26.5433 28.8314 26.1892 29.1855 25.7621 29.1855C25.335 29.1855 24.9808 28.8314 24.9808 28.4043V25.6647C23.9288 25.3314 23.1579 24.3522 23.1579 23.196C23.1579 21.7585 24.3246 20.5918 25.7621 20.5918C27.1996 20.5918 28.3663 21.7585 28.3663 23.196C28.3663 24.3626 27.5954 25.3314 26.5433 25.6647Z" fill="#AC4141"/>
</svg>
