<svg width="32" height="32" viewBox="0 0 32 32" fill="none" xmlns="http://www.w3.org/2000/svg">
<rect width="32" height="32" rx="12" fill="#F2C110"/>
<path d="M25.2131 13.5021C25.2161 13.5571 25.2121 13.6131 25.1983 13.6687L23.9646 18.6033C23.9024 18.8519 23.6796 19.0267 23.4235 19.0281L16.0216 19.0654C16.0206 19.0654 16.0197 19.0654 16.0188 19.0654H8.61682C8.35933 19.0654 8.13495 18.89 8.07275 18.6402L6.8391 13.6869C6.8249 13.6298 6.82079 13.5722 6.82437 13.5158C6.34714 13.3654 6 12.9188 6 12.3926C6 11.7432 6.52822 11.215 7.17757 11.215C7.82692 11.215 8.35514 11.7432 8.35514 12.3926C8.35514 12.7582 8.18759 13.0854 7.92523 13.3016L9.46976 14.8577C9.86011 15.2511 10.4018 15.4766 10.956 15.4766C11.6112 15.4766 12.236 15.1654 12.6294 14.6441L15.1677 11.2808C14.9545 11.0677 14.8224 10.7733 14.8224 10.4486C14.8224 9.79928 15.3507 9.27106 16 9.27106C16.6493 9.27106 17.1776 9.79928 17.1776 10.4486C17.1776 10.7635 17.0526 11.0494 16.8505 11.2609C16.8511 11.2618 16.852 11.2625 16.8526 11.2635L19.3726 14.6361C19.7658 15.1624 20.3928 15.4767 21.0499 15.4767C21.6092 15.4767 22.1351 15.2589 22.5305 14.8634L24.0848 13.3091C23.8169 13.093 23.6449 12.7627 23.6449 12.3926C23.6449 11.7432 24.1731 11.215 24.8224 11.215C25.4718 11.215 26 11.7432 26 12.3926C26 12.9048 25.6707 13.3404 25.2131 13.5021ZM23.8443 20.8225C23.8443 20.5128 23.5932 20.2617 23.2835 20.2617H8.77884C8.46916 20.2617 8.21809 20.5128 8.21809 20.8225V22.1683C8.21809 22.4779 8.46916 22.729 8.77884 22.729H23.2835C23.5932 22.729 23.8443 22.4779 23.8443 22.1683V20.8225Z" fill="white"/>
</svg>
