<svg width="32" height="32" viewBox="0 0 32 32" fill="none" xmlns="http://www.w3.org/2000/svg">
<rect width="32" height="32" rx="12" fill="#9471F7"/>
<path fill-rule="evenodd" clip-rule="evenodd" d="M13.0307 9.5843C13.1415 9.66418 13.3202 9.84767 13.3202 9.84767C14.0138 10.497 15.0585 12.112 15.394 12.9313C15.401 12.9313 15.6 13.4185 15.6078 13.6503V13.6811C15.6078 14.0362 15.4088 14.3684 15.0889 14.5384C14.957 14.6085 14.6363 14.6737 14.4815 14.7052C14.4303 14.7156 14.3972 14.7223 14.3953 14.7243C13.9381 14.7939 13.2367 14.8398 12.4666 14.8398C11.6583 14.8398 10.9265 14.7939 10.4763 14.7085C10.4685 14.7085 10.0573 14.6239 9.91998 14.5693C9.7218 14.4847 9.55405 14.3296 9.44716 14.1367C9.3707 13.9824 9.33325 13.8195 9.33325 13.6503C9.34027 13.4723 9.45497 13.1401 9.50802 13.0089C9.84351 12.1428 10.9413 10.4891 11.6123 9.85557C11.682 9.78492 11.7613 9.7109 11.8165 9.6594C11.8459 9.63192 11.8685 9.61085 11.8791 9.60012C12.0468 9.46883 12.2528 9.39923 12.4744 9.39923C12.6718 9.39923 12.87 9.46092 13.0307 9.5843ZM20.1524 14.1681C20.1524 14.5169 19.8738 14.7993 19.5298 14.7993C19.1857 14.7993 18.9072 14.5169 18.9072 14.1681L18.7355 11.1192C18.7355 10.6747 19.0913 10.3148 19.5298 10.3148C19.9683 10.3148 20.3232 10.6747 20.3232 11.1192L20.1524 14.1681ZM22.0798 16.2149C22.278 16.3003 22.4457 16.4545 22.5526 16.6475C22.6291 16.8018 22.6665 16.9647 22.6665 17.1347C22.6595 17.3119 22.5448 17.6449 22.491 17.7762C22.1563 18.6414 21.0577 20.2952 20.3875 20.9295C20.319 20.9985 20.2412 21.071 20.1861 21.1223L20.1861 21.1223C20.1553 21.151 20.1316 21.1731 20.1207 21.1842C19.9521 21.3155 19.7469 21.3851 19.5261 21.3851C19.3272 21.3851 19.129 21.3234 18.9691 21.1992C18.8583 21.1201 18.6796 20.9366 18.6796 20.9366C17.9852 20.2881 16.9413 18.6722 16.6058 17.8529C16.598 17.8529 16.3998 17.3665 16.392 17.1347V17.1039C16.392 16.748 16.5902 16.4158 16.9109 16.2457C17.0425 16.1764 17.3622 16.111 17.5173 16.0793C17.5691 16.0687 17.6025 16.0619 17.6045 16.0599C18.0617 15.9903 18.7631 15.9444 19.5332 15.9444C20.3415 15.9444 21.0733 15.9903 21.5235 16.0757C21.5305 16.0757 21.9425 16.1603 22.0798 16.2149ZM12.4704 15.9851C12.1263 15.9851 11.8478 16.2675 11.8478 16.6163L11.6761 19.6651C11.6761 20.1096 12.0319 20.4695 12.4704 20.4695C12.9089 20.4695 13.2639 20.1096 13.2639 19.6651L13.093 16.6163C13.093 16.2675 12.8144 15.9851 12.4704 15.9851Z" fill="white"/>
</svg>
