<svg width="32" height="32" viewBox="0 0 32 32" fill="none" xmlns="http://www.w3.org/2000/svg">
<rect width="32" height="32" rx="12" fill="#567DF4"/>
<path d="M16 6C10.486 6 6 10.4861 6 16.0001C6 21.5141 10.486 26 16 26C21.514 26 26 21.5141 26 16.0001C26 10.4861 21.514 6 16 6ZM16 24.1818C11.4885 24.1818 7.81818 20.5115 7.81818 16.0001C7.81818 11.4886 11.4885 7.81818 16 7.81818C20.5115 7.81818 24.1818 11.4886 24.1818 16.0001C24.1818 20.5115 20.5115 24.1818 16 24.1818Z" fill="white"/>
<path d="M16 10.2424C15.3317 10.2424 14.7881 10.7864 14.7881 11.4551C14.7881 12.1232 15.3317 12.6667 16 12.6667C16.6682 12.6667 17.2118 12.1232 17.2118 11.4551C17.2118 10.7864 16.6682 10.2424 16 10.2424Z" fill="white"/>
<path d="M15.9999 14.4849C15.4979 14.4849 15.0908 14.8919 15.0908 15.394V20.8485C15.0908 21.3506 15.4979 21.7576 15.9999 21.7576C16.502 21.7576 16.909 21.3506 16.909 20.8485V15.394C16.909 14.8919 16.502 14.4849 15.9999 14.4849Z" fill="white"/>
</svg>
