<svg width="36" height="36" viewBox="0 0 36 36" fill="none" xmlns="http://www.w3.org/2000/svg">
<rect width="36" height="36" rx="13" fill="#12CDD9"/>
<path fill-rule="evenodd" clip-rule="evenodd" d="M18.9663 13.2535H21.013C23.473 13.2535 24.673 14.5668 24.6663 17.2602V20.5068C24.6663 23.0802 23.0797 24.6668 20.4997 24.6668H15.493C12.9263 24.6668 11.333 23.0802 11.333 20.5002V15.4935C11.333 12.7335 12.5597 11.3335 14.9797 11.3335H16.033C16.6537 11.3268 17.233 11.6135 17.613 12.1002L18.1997 12.8802C18.3863 13.1135 18.6663 13.2535 18.9663 13.2535ZM14.9131 20.1935H21.0864C21.3597 20.1935 21.5797 19.9668 21.5797 19.6935C21.5797 19.4135 21.3597 19.1935 21.0864 19.1935H14.9131C14.6331 19.1935 14.4131 19.4135 14.4131 19.6935C14.4131 19.9668 14.6331 20.1935 14.9131 20.1935Z" fill="white"/>
</svg>
