<svg width="24" height="24" viewBox="0 0 24 24" fill="none" xmlns="http://www.w3.org/2000/svg">
<path fill-rule="evenodd" clip-rule="evenodd" d="M4.54 2H7.92C9.33 2 10.46 3.15 10.46 4.561V7.97C10.46 9.39 9.33 10.53 7.92 10.53H4.54C3.14 10.53 2 9.39 2 7.97V4.561C2 3.15 3.14 2 4.54 2ZM4.54001 13.4698H7.92001C9.33001 13.4698 10.46 14.6108 10.46 16.0308V19.4398C10.46 20.8498 9.33001 21.9998 7.92001 21.9998H4.54001C3.14001 21.9998 2.00001 20.8498 2.00001 19.4398V16.0308C2.00001 14.6108 3.14001 13.4698 4.54001 13.4698ZM19.4601 2.00001H16.0801C14.6701 2.00001 13.5401 3.15001 13.5401 4.56101V7.97001C13.5401 9.39001 14.6701 10.53 16.0801 10.53H19.4601C20.8601 10.53 22.0001 9.39001 22.0001 7.97001V4.56101C22.0001 3.15001 20.8601 2.00001 19.4601 2.00001ZM16.0801 13.4698H19.4601C20.8601 13.4698 22.0001 14.6108 22.0001 16.0308V19.4398C22.0001 20.8498 20.8601 21.9998 19.4601 21.9998H16.0801C14.6701 21.9998 13.5401 20.8498 13.5401 19.4398V16.0308C13.5401 14.6108 14.6701 13.4698 16.0801 13.4698Z" fill="white"/>
</svg>
